<svg id="Layer_1" data-name="Layer 1" xmlns="http://www.w3.org/2000/svg" xmlns:xlink="http://www.w3.org/1999/xlink" viewBox="0 0 11.28 11.28"><defs><style>.cls-1,.cls-4,.cls-5,.cls-6,.cls-7{fill:none;}.cls-2{fill:#f7e2ed;}.cls-3{clip-path:url(#clip-path);}.cls-4{stroke:#f7e2ed;}.cls-4,.cls-5,.cls-6,.cls-7{stroke-linecap:round;stroke-linejoin:round;}.cls-5{stroke:#9fa0a0;}.cls-5,.cls-6{stroke-width:0.75px;}.cls-6,.cls-7{stroke:#595757;}.cls-7{stroke-width:0.5px;}</style><clipPath id="clip-path" transform="translate(-0.01 -0.01)"><rect class="cls-1" width="11.31" height="11.31"/></clipPath></defs><title>bounce</title><rect class="cls-2" x="0.49" y="0.49" width="10.31" height="10.31"/><g class="cls-3"><rect class="cls-4" x="0.5" y="0.5" width="10.28" height="10.28"/><polyline class="cls-5" points="0.79 0.7 0.79 10.53 10.69 10.53"/></g><polyline class="cls-5" points="2.17 7.49 4.79 4.86 6.42 6.49 9.12 3.8"/><g class="cls-3"><rect class="cls-1" x="0.49" y="0.49" width="10.29" height="10.29"/><path class="cls-6" d="M8.53,4.33A3.22,3.22,0,0,0,5.75,2.77a3.14,3.14,0,0,0-3.2,3.09A3.14,3.14,0,0,0,5.75,9,3.25,3.25,0,0,0,8.41,7.58" transform="translate(-0.01 -0.01)"/><path class="cls-7" d="M7.08,5.41a1.33,1.33,0,0,0-1.14-.62A1.27,1.27,0,0,0,4.63,6,1.27,1.27,0,0,0,5.94,7.25,1.33,1.33,0,0,0,7,6.7" transform="translate(-0.01 -0.01)"/><line class="cls-6" x1="8.52" y1="4.32" x2="6.76" y2="4.09"/><line class="cls-6" x1="8.52" y1="4.32" x2="8.4" y2="2.51"/><line class="cls-7" x1="7.21" y1="6.49" x2="7.1" y2="7.28"/><line class="cls-7" x1="7.21" y1="6.49" x2="6.32" y2="6.55"/></g></svg>