<?xml version="1.0" encoding="utf-8"?>
<!-- Generator: Adobe Illustrator 22.0.1, SVG Export Plug-In . SVG Version: 6.00 Build 0)  -->
<svg version="1.1" id="Layer_1" xmlns="http://www.w3.org/2000/svg" xmlns:xlink="http://www.w3.org/1999/xlink" x="0px" y="0px"
	 viewBox="0 0 11.3 11.3" style="enable-background:new 0 0 11.3 11.3;" xml:space="preserve">
<style type="text/css">
	.st0{fill:#FDEEE1;}
	.st1{clip-path:url(#SVGID_2_);fill:none;stroke:#FDEEE1;stroke-linecap:round;stroke-linejoin:round;stroke-miterlimit:10;}
	.st2{clip-path:url(#SVGID_2_);fill:#595757;}
	
		.st3{clip-path:url(#SVGID_2_);fill:none;stroke:#595757;stroke-width:0.5;stroke-linecap:round;stroke-linejoin:round;stroke-miterlimit:10;}
</style>
<rect x="0.5" y="0.5" class="st0" width="10.3" height="10.3"/>
<g>
	<defs>
		<rect id="SVGID_1_" y="0" width="11.3" height="11.3"/>
	</defs>
	<clipPath id="SVGID_2_">
		<use xlink:href="#SVGID_1_"  style="overflow:visible;"/>
	</clipPath>
	<rect x="0.5" y="0.5" class="st1" width="10.3" height="10.3"/>
	<path class="st2" d="M6.1,5.6c0,0.3-0.2,0.5-0.5,0.5S5,5.9,5,5.6c0-0.3,0.2-0.5,0.5-0.5S6.1,5.3,6.1,5.6"/>
	<path class="st2" d="M3.7,5.6c0,0.3-0.2,0.5-0.5,0.5S2.6,5.9,2.6,5.6c0-0.3,0.2-0.5,0.5-0.5S3.7,5.3,3.7,5.6"/>
	<path class="st2" d="M8.6,5.6c0,0.3-0.2,0.5-0.5,0.5c-0.3,0-0.5-0.2-0.5-0.5c0-0.3,0.2-0.5,0.5-0.5C8.3,5.1,8.6,5.3,8.6,5.6"/>
	<path class="st3" d="M5.6,0.9C3.1,0.9,1,3,1,5.6c0,1,0.3,1.9,0.9,2.7l-0.7,2.1l2.2-0.8c0.7,0.4,1.5,0.7,2.4,0.7
		c2.6,0,4.7-2.1,4.7-4.7C10.3,3,8.2,0.9,5.6,0.9z"/>
</g>
</svg>
