<svg id="Layer_1" data-name="Layer 1" xmlns="http://www.w3.org/2000/svg" xmlns:xlink="http://www.w3.org/1999/xlink" viewBox="0 0 11.31 11.31"><defs><style>.cls-1,.cls-4,.cls-5{fill:none;}.cls-2{fill:#fbe7e7;}.cls-3{clip-path:url(#clip-path);}.cls-4{stroke:#fbe7e7;}.cls-4,.cls-5{stroke-linecap:round;stroke-linejoin:round;}.cls-5{stroke:#595757;stroke-width:0.75px;}.cls-6{fill:#595757;}</style><clipPath id="clip-path" transform="translate(0 0)"><rect class="cls-1" width="11.31" height="11.31"/></clipPath></defs><title>no</title><rect class="cls-2" x="0.5" y="0.5" width="10.31" height="10.31"/><g class="cls-3"><rect class="cls-4" x="0.5" y="0.5" width="10.31" height="10.31"/></g><line class="cls-5" x1="9.16" y1="1.64" x2="3.14" y2="1.64"/><line class="cls-5" x1="8.29" y1="5.81" x2="3.14" y2="5.81"/><g class="cls-3"><line class="cls-5" x1="8.27" y1="9.99" x2="1.02" y2="9.99"/><path class="cls-5" d="M1,3.72A2.09,2.09,0,0,1,3.11,1.64" transform="translate(0 0)"/><path class="cls-5" d="M1,3.72A2.09,2.09,0,0,0,3.11,5.81" transform="translate(0 0)"/><path class="cls-5" d="M10.36,7.9A2.09,2.09,0,0,0,8.27,5.81" transform="translate(0 0)"/><path class="cls-5" d="M10.36,7.9A2.09,2.09,0,0,1,8.27,10" transform="translate(0 0)"/><path class="cls-6" d="M10.17,1.64A.68.68,0,1,1,9.5,1a.67.67,0,0,1,.67.68" transform="translate(0 0)"/></g></svg>