<svg id="Layer_1" data-name="Layer 1" xmlns="http://www.w3.org/2000/svg" xmlns:xlink="http://www.w3.org/1999/xlink" viewBox="0 0 11.31 11.31"><defs><style>.cls-1,.cls-4,.cls-5,.cls-6{fill:none;}.cls-2{fill:#fbe7e7;}.cls-3{clip-path:url(#clip-path);}.cls-4{stroke:#fbe7e7;}.cls-4,.cls-5,.cls-6{stroke-linecap:round;stroke-linejoin:round;}.cls-5{stroke:#595757;}.cls-5,.cls-6{stroke-width:0.75px;}.cls-6{stroke:#9fa0a0;}.cls-7{fill:#595757;}</style><clipPath id="clip-path" transform="translate(0 0)"><rect class="cls-1" width="11.31" height="11.31"/></clipPath></defs><title>overview2</title><rect class="cls-2" x="0.5" y="0.5" width="10.31" height="10.31"/><g class="cls-3"><rect class="cls-4" x="0.5" y="0.5" width="10.31" height="10.31"/></g><line class="cls-5" x1="9.13" y1="1.63" x2="3.1" y2="1.63"/><line class="cls-5" x1="8.26" y1="5.8" x2="3.1" y2="5.8"/><g class="cls-3"><line class="cls-6" x1="8.24" y1="9.98" x2="0.99" y2="9.98"/><path class="cls-5" d="M1,3.71A2.08,2.08,0,0,1,3.07,1.63" transform="translate(0 0)"/><path class="cls-5" d="M1,3.71A2.08,2.08,0,0,0,3.07,5.8" transform="translate(0 0)"/><path class="cls-6" d="M10.32,7.89A2.08,2.08,0,0,0,8.23,5.8" transform="translate(0 0)"/><path class="cls-6" d="M10.32,7.89A2.08,2.08,0,0,1,8.23,10" transform="translate(0 0)"/><path class="cls-7" d="M8.11,5.8a.68.68,0,1,1-.68-.67.68.68,0,0,1,.68.67" transform="translate(0 0)"/></g></svg>