<?xml version="1.0" encoding="utf-8"?>
<!-- Generator: Adobe Illustrator 22.0.1, SVG Export Plug-In . SVG Version: 6.00 Build 0)  -->
<svg version="1.1" id="Layer_1" xmlns="http://www.w3.org/2000/svg" xmlns:xlink="http://www.w3.org/1999/xlink" x="0px" y="0px"
	 viewBox="0 0 11.3 11.3" style="enable-background:new 0 0 11.3 11.3;" xml:space="preserve">
<style type="text/css">
	.st0{fill:#FDEEE1;}
	.st1{clip-path:url(#SVGID_2_);fill:none;stroke:#FDEEE1;stroke-linecap:round;stroke-linejoin:round;stroke-miterlimit:10;}
	.st2{fill:#595757;}
	
		.st3{clip-path:url(#SVGID_4_);fill:none;stroke:#595757;stroke-width:0.75;stroke-linecap:round;stroke-linejoin:round;stroke-miterlimit:10;}
	.st4{fill:none;stroke:#595757;stroke-width:0.5;stroke-linecap:round;stroke-linejoin:round;stroke-miterlimit:10;}
	
		.st5{clip-path:url(#SVGID_6_);fill:none;stroke:#595757;stroke-width:0.5;stroke-linecap:round;stroke-linejoin:round;stroke-miterlimit:10;}
</style>
<rect x="0.5" y="0.5" class="st0" width="10.3" height="10.3"/>
<g>
	<defs>
		<rect id="SVGID_1_" y="0" width="11.3" height="11.3"/>
	</defs>
	<clipPath id="SVGID_2_">
		<use xlink:href="#SVGID_1_"  style="overflow:visible;"/>
	</clipPath>
	<rect x="0.5" y="0.5" class="st1" width="10.3" height="10.3"/>
</g>
<polygon class="st2" points="1.2,4.7 5.7,1 10.1,4.7 "/>
<g>
	<defs>
		<rect id="SVGID_3_" y="0" width="11.3" height="11.3"/>
	</defs>
	<clipPath id="SVGID_4_">
		<use xlink:href="#SVGID_3_"  style="overflow:visible;"/>
	</clipPath>
	<polygon class="st3" points="1.2,4.7 5.7,1 10.1,4.7 	"/>
</g>
<rect x="3.8" y="4.6" class="st2" width="3.7" height="2.1"/>
<rect x="3.8" y="4.6" class="st4" width="3.7" height="2.1"/>
<rect x="3.8" y="7.6" class="st2" width="3.7" height="0.8"/>
<rect x="3.8" y="7.6" class="st4" width="3.7" height="0.8"/>
<rect x="3.8" y="9.3" class="st2" width="3.7" height="0.4"/>
<rect x="3.8" y="9.3" class="st4" width="3.7" height="0.4"/>
<rect x="3.8" y="10.5" class="st2" width="3.7" height="0.1"/>
<g>
	<defs>
		<rect id="SVGID_5_" y="0" width="11.3" height="11.3"/>
	</defs>
	<clipPath id="SVGID_6_">
		<use xlink:href="#SVGID_5_"  style="overflow:visible;"/>
	</clipPath>
	<rect x="3.8" y="10.5" class="st5" width="3.7" height="0.1"/>
</g>
</svg>
