<svg id="Layer_1" data-name="Layer 1" xmlns="http://www.w3.org/2000/svg" xmlns:xlink="http://www.w3.org/1999/xlink" viewBox="0 0 10.81 10.81"><defs><style>.cls-1,.cls-4,.cls-5,.cls-6{fill:none;}.cls-2{fill:#d0e9f1;}.cls-3{clip-path:url(#clip-path);}.cls-4{stroke:#d0e9f1;}.cls-4,.cls-5,.cls-6{stroke-linecap:round;stroke-linejoin:round;}.cls-4,.cls-6{stroke-width:0.5px;}.cls-5,.cls-6{stroke:#595757;}.cls-5{stroke-width:0.75px;}</style><clipPath id="clip-path" transform="translate(0 0)"><rect class="cls-1" width="10.81" height="10.81"/></clipPath></defs><title>structure</title><rect class="cls-2" x="0.25" y="0.25" width="10.31" height="10.31"/><g class="cls-3"><rect class="cls-4" x="0.25" y="0.25" width="10.31" height="10.31"/><polyline class="cls-5" points="1.13 1.85 1.13 7.17 9.62 7.17"/></g><polyline class="cls-5" points="2.65 6.13 4.98 3.81 6.42 5.25 8.81 2.86"/><line class="cls-6" x1="1.52" y1="8.76" x2="4.1" y2="8.76"/><line class="cls-6" x1="4.86" y1="8.76" x2="8.95" y2="8.76"/><g class="cls-3"><line class="cls-6" x1="1.52" y1="10.15" x2="8.96" y2="10.15"/></g><line class="cls-6" x1="2.5" y1="0.83" x2="3.15" y2="1.47"/><line class="cls-6" x1="2.5" y1="1.47" x2="3.15" y2="0.83"/><line class="cls-6" x1="3.78" y1="0.83" x2="4.42" y2="1.47"/><line class="cls-6" x1="3.78" y1="1.47" x2="4.42" y2="0.83"/><line class="cls-6" x1="5.08" y1="0.83" x2="5.73" y2="1.47"/><line class="cls-6" x1="5.08" y1="1.47" x2="5.73" y2="0.83"/><line class="cls-6" x1="6.39" y1="0.83" x2="7.03" y2="1.47"/><line class="cls-6" x1="6.39" y1="1.47" x2="7.03" y2="0.83"/><line class="cls-6" x1="7.7" y1="0.83" x2="8.34" y2="1.47"/><line class="cls-6" x1="7.7" y1="1.47" x2="8.34" y2="0.83"/></svg>