<svg id="Layer_1" data-name="Layer 1" xmlns="http://www.w3.org/2000/svg" xmlns:xlink="http://www.w3.org/1999/xlink" viewBox="0 0 11.31 11.31"><defs><style>.cls-1,.cls-4,.cls-5,.cls-7{fill:none;}.cls-2{fill:#fbe7e7;}.cls-3{clip-path:url(#clip-path);}.cls-4{stroke:#fbe7e7;}.cls-4,.cls-5,.cls-7{stroke-linecap:round;stroke-linejoin:round;}.cls-5{stroke:#9fa0a0;stroke-width:0.5px;}.cls-6{fill:#9fa0a0;}.cls-7{stroke:#595757;stroke-width:0.75px;}.cls-8{fill:#595757;}</style><clipPath id="clip-path" transform="translate(0 0)"><rect class="cls-1" width="11.31" height="11.31"/></clipPath></defs><title>baseline</title><rect class="cls-2" x="0.5" y="0.5" width="10.31" height="10.31"/><g class="cls-3"><rect class="cls-4" x="0.5" y="0.5" width="10.31" height="10.31"/><path class="cls-5" d="M8.29,7.34A2.08,2.08,0,0,0,6.2,5.26" transform="translate(0 0)"/><path class="cls-5" d="M8.29,7.34A2.08,2.08,0,0,1,6.2,9.43" transform="translate(0 0)"/><line class="cls-5" x1="6.41" y1="5.26" x2="4.18" y2="5.26"/><line class="cls-5" x1="6.41" y1="1.08" x2="4.18" y2="1.08"/><line class="cls-5" x1="6.4" y1="9.43" x2="4.17" y2="9.43"/><path class="cls-6" d="M7,1.08a.59.59,0,0,1-.59.59A.59.59,0,0,1,6.41.5.59.59,0,0,1,7,1.08" transform="translate(0 0)"/><line class="cls-7" x1="9.42" y1="2.85" x2="3.17" y2="2.85"/><line class="cls-7" x1="8.52" y1="6.41" x2="3.17" y2="6.41"/><line class="cls-7" x1="8.53" y1="10.23" x2="1.28" y2="10.23"/><path class="cls-5" d="M2.08,3.17A2.09,2.09,0,0,1,4.17,1.08" transform="translate(0 0)"/><path class="cls-5" d="M2.08,3.17A2.09,2.09,0,0,0,4.17,5.26" transform="translate(0 0)"/><path class="cls-7" d="M1.28,4.63A1.78,1.78,0,0,1,3.06,2.86" transform="translate(0 0)"/><path class="cls-7" d="M1.28,4.63A1.78,1.78,0,0,0,3.06,6.41" transform="translate(0 0)"/><path class="cls-7" d="M10.44,8.32A1.9,1.9,0,0,0,8.53,6.41" transform="translate(0 0)"/><path class="cls-7" d="M10.44,8.32a1.91,1.91,0,0,1-1.91,1.91" transform="translate(0 0)"/><path class="cls-8" d="M10.47,2.85a.68.68,0,1,1-.68-.68.67.67,0,0,1,.68.68" transform="translate(0 0)"/></g></svg>