<svg id="Layer_1" data-name="Layer 1" xmlns="http://www.w3.org/2000/svg" xmlns:xlink="http://www.w3.org/1999/xlink" viewBox="0 0 11.31 11.31"><defs><style>.cls-1,.cls-4,.cls-6,.cls-7,.cls-9{fill:none;}.cls-2{fill:#fbe7e7;}.cls-3{clip-path:url(#clip-path);}.cls-4{stroke:#fbe7e7;}.cls-4,.cls-6,.cls-7{stroke-linecap:round;stroke-linejoin:round;}.cls-5{fill:#595757;}.cls-6,.cls-7,.cls-9{stroke:#595757;}.cls-6,.cls-9{stroke-width:0.5px;}.cls-7{stroke-width:0.25px;}.cls-8{fill:#fae6e5;}.cls-9{stroke-miterlimit:10;}</style><clipPath id="clip-path" transform="translate(0 0)"><rect class="cls-1" width="11.31" height="11.31"/></clipPath></defs><title>longexposure</title><rect class="cls-2" x="0.5" y="0.5" width="10.31" height="10.31"/><g class="cls-3"><rect class="cls-4" x="0.5" y="0.5" width="10.31" height="10.31"/><path class="cls-5" d="M5.65,1.5A4.16,4.16,0,1,1,1.5,5.65,4.16,4.16,0,0,1,5.65,1.5m0-1a5.16,5.16,0,1,0,5.16,5.15A5.16,5.16,0,0,0,5.65.5" transform="translate(0 0)"/><line class="cls-6" x1="5.65" y1="2.51" x2="5.65" y2="8.8"/><line class="cls-6" x1="2.51" y1="5.65" x2="8.8" y2="5.65"/><line class="cls-7" x1="3.72" y1="3.7" x2="4.36" y2="4.33"/><line class="cls-7" x1="6.95" y1="6.93" x2="7.58" y2="7.56"/><line class="cls-7" x1="7.58" y1="3.7" x2="6.95" y2="4.33"/><line class="cls-7" x1="4.36" y1="6.93" x2="3.72" y2="7.56"/><path class="cls-8" d="M6.81,5.65a1.16,1.16,0,1,1-2.31,0,1.16,1.16,0,0,1,2.31,0" transform="translate(0 0)"/><circle class="cls-9" cx="5.65" cy="5.65" r="1.16"/></g></svg>