<svg id="Layer_1" data-name="Layer 1" xmlns="http://www.w3.org/2000/svg" xmlns:xlink="http://www.w3.org/1999/xlink" viewBox="0 0 11.03 11.03"><defs><style>.cls-1,.cls-4,.cls-5,.cls-7{fill:none;}.cls-2{fill:#f7e2ed;}.cls-3{clip-path:url(#clip-path);}.cls-4{stroke:#f7e2ed;}.cls-4,.cls-5,.cls-7{stroke-linecap:round;stroke-linejoin:round;}.cls-5{stroke:#9fa0a0;}.cls-5,.cls-7{stroke-width:0.75px;}.cls-6{clip-path:url(#clip-path-2);}.cls-7{stroke:#595757;}</style><clipPath id="clip-path" transform="translate(0 0)"><rect class="cls-1" width="11.03" height="11.03"/></clipPath><clipPath id="clip-path-2" transform="translate(0 0)"><rect class="cls-1" y="0.05" width="11.31" height="11.31"/></clipPath></defs><title>loop</title><rect class="cls-2" x="0.5" y="0.5" width="10.03" height="10.03"/><g class="cls-3"><rect class="cls-4" x="0.5" y="0.5" width="10.03" height="10.03"/><polyline class="cls-5" points="0.79 0.69 0.79 10.28 10.44 10.28"/></g><polyline class="cls-5" points="2.14 7.55 4.76 4.92 6.39 6.55 9.09 3.85"/><g class="cls-6"><path class="cls-7" d="M8.05,4.16A3,3,0,0,0,2.72,5.34,2.88,2.88,0,0,0,5.11,8.68,3,3,0,0,0,8.59,6.39a2.79,2.79,0,0,0,0-.91" transform="translate(0 0)"/><line class="cls-7" x1="8.26" y1="4.45" x2="6.62" y2="4.24"/><line class="cls-7" x1="8.26" y1="4.45" x2="8.15" y2="2.78"/></g></svg>