<svg id="Layer_1" data-name="Layer 1" xmlns="http://www.w3.org/2000/svg" xmlns:xlink="http://www.w3.org/1999/xlink" viewBox="0 0 11.31 11.31"><defs><style>.cls-1,.cls-4,.cls-5,.cls-6{fill:none;}.cls-2{fill:#fbe7e7;}.cls-3{clip-path:url(#clip-path);}.cls-4{stroke:#fbe7e7;}.cls-4,.cls-6{stroke-linecap:round;stroke-linejoin:round;}.cls-5{stroke:#9fa0a0;stroke-miterlimit:10;stroke-width:0.25px;stroke-dasharray:1 1;}.cls-6{stroke:#595757;stroke-width:0.75px;}.cls-7{fill:#9fa0a0;}.cls-8{fill:#595757;}</style><clipPath id="clip-path" transform="translate(0 0)"><rect class="cls-1" width="11.31" height="11.31"/></clipPath></defs><title>trails</title><rect class="cls-2" x="0.5" y="0.5" width="10.31" height="10.31"/><g class="cls-3"><rect class="cls-4" x="0.5" y="0.5" width="10.31" height="10.31"/></g><line class="cls-5" x1="9.18" y1="1.48" x2="3.15" y2="1.48"/><line class="cls-5" x1="8.31" y1="5.65" x2="3.15" y2="5.65"/><g class="cls-3"><line class="cls-6" x1="8.29" y1="9.83" x2="1.04" y2="9.83"/><path class="cls-5" d="M1,3.57A2.08,2.08,0,0,1,3.12,1.48" transform="translate(0 0)"/><path class="cls-5" d="M1,3.57A2.08,2.08,0,0,0,3.12,5.65" transform="translate(0 0)"/><path class="cls-6" d="M10.37,7.74A2.09,2.09,0,0,0,8.29,5.65" transform="translate(0 0)"/><path class="cls-6" d="M10.37,7.74A2.09,2.09,0,0,1,8.29,9.83" transform="translate(0 0)"/><path class="cls-7" d="M7.12,5.65A.68.68,0,1,1,6.44,5a.68.68,0,0,1,.68.67" transform="translate(0 0)"/><path class="cls-7" d="M5.24,5.65A.68.68,0,1,1,4.56,5a.67.67,0,0,1,.68.67" transform="translate(0 0)"/><path class="cls-7" d="M3,5.65A.68.68,0,1,1,2.27,5,.67.67,0,0,1,3,5.65" transform="translate(0 0)"/><path class="cls-7" d="M1.82,2.81a.68.68,0,1,1-.67-.68.68.68,0,0,1,.67.68" transform="translate(0 0)"/><path class="cls-7" d="M4.41,1.48A.68.68,0,1,1,3.74.8a.68.68,0,0,1,.67.68" transform="translate(0 0)"/><path class="cls-7" d="M9.85,1.48A.68.68,0,1,1,9.18.8a.68.68,0,0,1,.67.68" transform="translate(0 0)"/><path class="cls-8" d="M8.25,5.65A.68.68,0,1,1,7.58,5a.67.67,0,0,1,.67.67" transform="translate(0 0)"/></g></svg>