<svg id="Layer_1" data-name="Layer 1" xmlns="http://www.w3.org/2000/svg" xmlns:xlink="http://www.w3.org/1999/xlink" viewBox="0 0 11.31 11.31"><defs><style>.cls-1,.cls-4,.cls-5,.cls-7{fill:none;}.cls-2{fill:#ddeee2;}.cls-3{clip-path:url(#clip-path);}.cls-4{stroke:#dbece0;}.cls-4,.cls-5{stroke-linecap:round;stroke-linejoin:round;}.cls-5,.cls-7{stroke:#595757;}.cls-5{stroke-width:0.75px;}.cls-6,.cls-8{fill:#595757;}.cls-7{stroke-miterlimit:10;stroke-width:0.5px;}.cls-8{font-size:2.5px;font-family:Arial-BoldMT, Arial;font-weight:700;}</style><clipPath id="clip-path" transform="translate(0 0)"><rect class="cls-1" width="11.31" height="11.31"/></clipPath></defs><title>with</title><rect class="cls-2" x="0.5" y="0.5" width="10.31" height="10.31"/><g class="cls-3"><rect class="cls-4" x="0.5" y="0.5" width="10.31" height="10.31"/><rect class="cls-5" x="0.94" y="2.49" width="9.43" height="2.23"/></g><polygon class="cls-6" points="0.82 2.63 0.82 4.56 6.47 4.57 4.59 2.63 0.82 2.63"/><line class="cls-6" x1="4.59" y1="2.61" x2="6.58" y2="4.59"/><line class="cls-7" x1="4.59" y1="2.61" x2="6.58" y2="4.59"/><line class="cls-6" x1="5.85" y1="2.61" x2="7.83" y2="4.59"/><line class="cls-7" x1="5.85" y1="2.61" x2="7.83" y2="4.59"/><line class="cls-6" x1="7.12" y1="2.61" x2="9.11" y2="4.59"/><line class="cls-7" x1="7.12" y1="2.61" x2="9.11" y2="4.59"/><g class="cls-3"><text class="cls-8" transform="translate(0.26 8.14)">progress</text></g><polyline class="cls-5" points="8.36 2.49 10.36 2.49 10.36 4.71 8.36 4.71"/><g class="cls-3"><polyline class="cls-5" points="2.93 4.71 0.93 4.71 0.93 2.49 2.93 2.49"/></g></svg>